<svg xmlns="http://www.w3.org/2000/svg" width="157.83" height="98.427" viewBox="0 0 157.83 98.427">
  <g id="logo_2_" data-name="logo (2)" transform="translate(-147.421 -67.804)">
    <g id="Group_2352" data-name="Group 2352" transform="translate(147.421 67.784)">
      <path id="Path_1284" data-name="Path 1284" d="M1158.14,869.871a4.323,4.323,0,0,0-.467,2.62c-.013,5.081,0,10.162-.011,15.243,0,1.875-.022,1.9-1.909,2.141-2.262.291-4.542.465-6.791.835-1.271.209-1.6-.289-1.53-1.393.018-.293,0-.589,0-.883V854.193c0-2.383.017-2.362,2.4-2.626,2.414-.267,4.835-.5,7.228-.9a2.967,2.967,0,0,1,3.163,1.326c3.975,5.021,8.038,9.972,12.082,14.938a5.44,5.44,0,0,0,1.852,1.831c.043-.721.111-1.334.112-1.947q.015-7.953.01-15.906c0-2.393-.17-2.37,2.14-2.56,2.2-.181,4.391-.466,6.568-.818,1.234-.2,1.505.25,1.495,1.389-.045,5.081-.018,10.162-.018,15.243v20.324c0,2.137-.076,1.908-1.9,2.08-2.635.248-5.274.549-7.88,1a2.472,2.472,0,0,1-2.623-1.058c-4.355-5.183-8.759-10.327-13.14-15.489C1158.69,870.743,1158.52,870.422,1158.14,869.871Z" transform="translate(-1042.711 -824.938)" fill="#6f4c9e"/>
      <path id="Path_1285" data-name="Path 1285" d="M956.8,898.207a9.9,9.9,0,0,1,.231,3.412c.022,4.271,0,8.541.006,12.812,0,.816.048,1.563-.882,2.047-5.444,2.835-11.11,4.723-17.352,3.995a16.56,16.56,0,0,1-14.157-12.213,22.763,22.763,0,0,1,19.3-28.519,25.141,25.141,0,0,1,10.915.757c1.616.522,1.628.543,1.016,2.1-.833,2.12-1.731,4.216-2.53,6.348-.4,1.055-.853,1.46-2.1,1.132a14.446,14.446,0,0,0-6.561-.248,8.987,8.987,0,0,0-5.882,3.582,12.217,12.217,0,0,0-1.095,12.761,6.872,6.872,0,0,0,7.916,3.787,1.5,1.5,0,0,0,1.438-1.774c-.042-2.134.018-4.27-.016-6.405A1.368,1.368,0,0,1,948.2,900.2C951.055,899.542,953.909,898.876,956.8,898.207Z" transform="translate(-858.246 -851.337)" fill="#6f4c9e"/>
      <path id="Path_1286" data-name="Path 1286" d="M636.586,921.121a22.284,22.284,0,0,1,8.062.931c1.057.308,1.381.781.925,1.916-.821,2.042-1.513,4.141-2.155,6.248-.315,1.034-.7,1.4-1.868,1.144a26.4,26.4,0,0,0-8.331-.593,10.074,10.074,0,0,0-2.572.583,1.992,1.992,0,0,0-1.441,1.781c-.045.969.65,1.452,1.463,1.694,1.124.334,2.27.6,3.416.851,1.58.343,3.2.532,4.748.98,6.886,2,9.882,7.344,8.123,14.32a12.379,12.379,0,0,1-6.6,8.414,29.6,29.6,0,0,1-21.033,2c-1.327-.331-1.625-.932-1.181-2.185.686-1.938,1.339-3.9,1.853-5.885.34-1.315.775-1.8,2.271-1.416a24.4,24.4,0,0,0,7.451.614,16.648,16.648,0,0,0,3.049-.461c1.942-.475,2.99-1.366,2.911-2.523-.113-1.654-1.54-1.836-2.689-2.163-1.62-.461-3.295-.735-4.948-1.081-.5-.1-1.015-.171-1.518-.28-4.141-.9-7.532-2.893-8.655-7.219a12.461,12.461,0,0,1,3.071-12.463c3.36-3.461,7.71-4.709,12.341-5.189a32.254,32.254,0,0,1,3.307-.018Z" transform="translate(-605.412 -885.641)" fill="#6f4c9e"/>
      <path id="Path_1287" data-name="Path 1287" d="M549.126,907.444V880.268c0-.883.03-1.767.045-2.65a1.169,1.169,0,0,1,1.212-1.27c2.124-.226,4.243-.494,6.365-.735.361-.041.852-.135,1.026.209.7,1.381.388,2.872.292,4.318-.065.986-.975,1.058-1.675,1.073-1.463.032-1.811.746-1.808,2.108.039,15.392.021,30.785.031,46.177,0,2.44.231,2.665,2.691,2.372q14.031-1.67,28.054-3.4c9.282-1.13,18.565-2.248,27.843-3.408,1.224-.153,1.847.194,1.823,1.471,0,.221.008.442.013.663.066,3.345.057,3.26-3.335,3.643-7.971.9-15.932,1.881-23.9,2.849q-11.18,1.359-22.355,2.757-7.013.864-14.028,1.717c-2.192.264-2.263.223-2.266-1.993q-.024-14.361-.007-28.723Z" transform="translate(-549.126 -848.112)" fill="#94c8ac"/>
      <path id="Path_1288" data-name="Path 1288" d="M1146.22,802.78v28.708c0,2.233-.017,2.212-2.312,2.457-1.316.141-2.626.339-3.932.555-.942.156-1.411-.19-1.412-1.147,0-1.03-.007-2.06.011-3.09.011-.63.2-1.214.906-1.333,1.189-.2,1.235-1.013,1.234-1.966q-.021-23.409-.019-46.818c0-2.015-.1-2.131-2.185-1.937-2.856.265-5.7.633-8.551.989q-16.425,2.053-32.847,4.122c-4.672.582-9.351,1.1-14.022,1.691-1.056.133-1.521-.205-1.5-1.279.112-4.84-.62-4.037,3.948-4.6,6.2-.773,12.416-1.495,18.624-2.246q13.036-1.577,26.071-3.167c4.6-.562,9.193-1.18,13.8-1.7,2.138-.24,2.181-.158,2.184,2.055Q1146.24,788.427,1146.22,802.78Z" transform="translate(-988.399 -762.609)" fill="#94c8ac"/>
      <path id="Path_1289" data-name="Path 1289" d="M831.434,903.733a4.9,4.9,0,0,1,.247,2.216q.014,17.33.007,34.66c0,2.13-.01,2.125-2.114,2.368-3.067.355-6.133.721-9.2,1.074-1.83.211-1.86.2-1.868-1.567-.019-3.9-.007-7.8-.007-11.7v-23.4c0-2.116.017-2.089,2.168-2.339C824.239,904.63,827.81,904.176,831.434,903.733Z" transform="translate(-771.348 -871.346)" fill="#6f4c9e"/>
      <path id="Path_1290" data-name="Path 1290" d="M846.262,742.6c0-2.793-.024-5.585.009-8.377.022-1.817.144-1.949,1.992-2.187,2.621-.338,5.245-.656,7.874-.915,2.45-.241,4.758.019,6.05,2.534a7.567,7.567,0,0,1-1.093,8.044c-.611.694-1.892.979-1.854,1.961a7.841,7.841,0,0,0,1.1,2.607q.876,1.9,1.77,3.784c.381.8.117,1.2-.725,1.407-2.257.543-2.878.247-3.857-1.924-.6-1.337-1.241-2.659-1.807-4.012a1.494,1.494,0,0,0-1.637-1.078c-3.507.1-3.663.217-3.667,3.69,0,.955,0,1.911-.007,2.866-.007,1.066-.309,1.769-1.58,1.936-2.281.3-2.563.142-2.573-2.179-.012-2.719,0-5.438,0-8.156Zm4.183-4.378c0,.882-.013,1.764.005,2.645.01.457.116.963.713.86,2.011-.349,4.143-.147,6-1.2a3.873,3.873,0,0,0,1.468-4.466c-.4-1.345-1.224-1.823-3.128-1.762a16.735,16.735,0,0,0-1.97.2c-3.12.476-3.119.482-3.088,3.727Z" transform="translate(-794.248 -728.889)" fill="#6f4c9e"/>
      <path id="Path_1291" data-name="Path 1291" d="M957.3,730.288c0-2.869-.023-5.739.008-8.607.02-1.852.1-1.991,1.957-2.239a49.022,49.022,0,0,1,8.56-.734c4.148.175,6.593,2.181,7.345,6.245a17.186,17.186,0,0,1,.01,5.931c-.793,4.791-3.813,7.523-8.394,8.515-2.577.558-5.243.694-7.862,1.073-1.3.188-1.671-.34-1.644-1.577C957.343,736.027,957.3,733.157,957.3,730.288Zm4-.715c0,1.987.037,3.976-.016,5.962-.027,1.019.251,1.538,1.372,1.38a20.316,20.316,0,0,0,4.749-.927,5.31,5.31,0,0,0,3.306-3.341,12.008,12.008,0,0,0,.034-8,3.957,3.957,0,0,0-3.6-2.769,19.4,19.4,0,0,0-4.612.312c-.911.118-1.261.506-1.241,1.422C961.328,725.6,961.3,727.585,961.3,729.573Z" transform="translate(-885.843 -718.688)" fill="#6f4c9e"/>
      <path id="Path_1292" data-name="Path 1292" d="M1181.35,1132.42c0,1.987.014,3.974,0,5.961a8.008,8.008,0,0,1-1.842,5.083c-2.808,3.48-9.271,4.986-13.334,3.1a5.858,5.858,0,0,1-3.577-5.41c-.132-4.191-.088-8.388-.033-12.582.021-1.58.8-2,2.755-1.961,1.489.03,1.363,1.062,1.368,2,.02,3.753.124,7.511-.022,11.258-.142,3.655,2.473,4.635,4.9,4.417,3.79-.34,5.679-2.342,5.708-6.176.027-3.68-.008-7.359.016-11.039a2.43,2.43,0,0,1,3.51-2.158c.619.286.534.823.537,1.32.013,2.061.005,4.121.005,6.182Z" transform="translate(-1055.154 -1053.618)" fill="#6f4c9e"/>
      <path id="Path_1293" data-name="Path 1293" d="M966.477,1166.45c0-2.87.054-5.741-.021-8.609-.036-1.384.451-1.989,1.855-2.111,2.488-.215,4.96-.609,7.445-.872,3.668-.388,5.867.638,6.741,3.208.978,2.877.622,7.241-2.6,9.3-2.012,1.287-4.31,1.373-6.55,1.731-.58.093-1.171.12-1.757.171-.812.072-1.131.524-1.116,1.323q.039,1.986,0,3.974a2.5,2.5,0,0,1-3.567,2.092c-.57-.324-.421-.89-.424-1.377C966.468,1172.33,966.476,1169.39,966.477,1166.45Zm8.5-8.386c-.916.12-2.217.332-3.527.446-.781.068-.965.476-.961,1.15q.017,2.747,0,5.493c-.006.736.287,1.089,1.049.984a42.327,42.327,0,0,0,4.773-.686c1.953-.5,3.009-2.731,2.575-4.961-.367-1.87-1.28-2.5-3.91-2.43Z" transform="translate(-893.413 -1078.452)" fill="#6f4c9e"/>
      <path id="Path_1294" data-name="Path 1294" d="M716.2,768.715c-1.1.141-1.418-.238-.962-1.364q3.922-9.7,7.763-19.422c.538-1.37,1.646-1.219,2.719-1.354,1.124-.141,1.294.718,1.616,1.441q3.674,8.249,7.344,16.5c.759,1.718.691,1.8-1.127,2.062-2.306.334-2.3.334-3.234-1.8-.2-.471-.464-.924-.622-1.41a1.21,1.21,0,0,0-1.5-.928q-3.062.382-6.134.677a1.772,1.772,0,0,0-1.692,1.447,17.554,17.554,0,0,1-.6,1.657C718.935,768.385,718.532,768.667,716.2,768.715Zm12.006-9.391c-1.2-2.337-1.8-4.686-3.23-6.953-1.068,2.639-2.08,5.013-2.852,7.578a28.047,28.047,0,0,0,6.076-.626Z" transform="translate(-685.996 -741.681)" fill="#6f4c9e"/>
      <path id="Path_1295" data-name="Path 1295" d="M1292.43,1135.18a12.254,12.254,0,0,1-4.961-.631c-.556-.229-1.441-.5-.909-1.391.458-.765.5-2.221,2.044-1.666a11.62,11.62,0,0,0,5.421.59,8.043,8.043,0,0,0,1.919-.464,2.913,2.913,0,0,0,2.084-2.807c.048-1.471-.972-2.047-2.14-2.425-1.674-.542-3.393-.952-5.047-1.545-1.949-.7-3.546-1.812-3.789-4.122a5.636,5.636,0,0,1,2.535-5.72,12.3,12.3,0,0,1,10.545-1.484c.707.205,1.663.407,1.19,1.612-.557,1.422-1.1,1.807-2.3,1.421a8.815,8.815,0,0,0-5.625-.035,2.98,2.98,0,0,0-2.39,3.024c0,1.6,1.1,2.094,2.363,2.464,1.618.475,3.239.936,4.847,1.441,2.123.666,3.635,1.916,3.85,4.294a5.845,5.845,0,0,1-3.039,5.913A11.975,11.975,0,0,1,1292.43,1135.18Z" transform="translate(-1157.357 -1043.949)" fill="#6f4c9e"/>
      <path id="Path_1296" data-name="Path 1296" d="M627.875,764.148c1.645-3.066,3.279-5.842,4.638-8.746a3.823,3.823,0,0,1,3.746-2.415c1.263-.04,1.545.24.958,1.362-1.5,2.861-3.074,5.68-4.62,8.515a3.609,3.609,0,0,1-.215.385,13.171,13.171,0,0,0-2.476,9.54c.144,1.241-.2,2.092-1.714,2.234-2.228.208-2.534.178-2.3-2.131a12.227,12.227,0,0,0-2.628-8.784c-1.634-2.256-3.008-4.7-4.46-7.087-.885-1.455-.714-1.611.84-1.993,1.8-.444,2.813.158,3.685,1.761C624.66,759.229,626.242,761.531,627.875,764.148Z" transform="translate(-606.172 -746.981)" fill="#6f4c9e"/>
      <path id="Path_1297" data-name="Path 1297" d="M1073.53,1156.9c0-2.865-.023-5.729.009-8.594a2.421,2.421,0,0,1,3.312-2.253c.894.3.664,1.05.667,1.661.021,4.48.011,8.961.01,13.441,0,.441.023.884-.014,1.322-.086,1.039.471,1.251,1.354,1.131q3.053-.415,6.11-.8c.509-.065,1.024-.1,1.537-.124.72-.028,1.53-.216,1.537.964.006,1,.057,1.943-1.3,2.1-3.789.447-7.571.967-11.365,1.368-1.671.177-1.828-.034-1.846-1.848C1073.51,1162.48,1073.53,1159.69,1073.53,1156.9Z" transform="translate(-981.738 -1071.129)" fill="#6f4c9e"/>
    </g>
  </g>
</svg>
