<?xml version="1.0" encoding="UTF-8"?>
<svg id="Layer_1" xmlns="http://www.w3.org/2000/svg" viewBox="0 0 760 440">
  <defs>
    <style>
      .cls-1 {
        fill: #f9d255;
      }

      .cls-2 {
        fill: #25549b;
      }
    </style>
  </defs>
  <rect class="cls-2" width="760" height="440"/>
  <g>
    <path class="cls-1" d="M62.89,65.5c2.65-3.05,5.4-7.33,10.08-6.62,208.35-.02,416.69,0,625.03,0,4.71-.18,9.43-.76,14.13.03.29,42.24.01,84.5.11,126.75-.12,8.22.37,16.49-.73,24.66-.19,1.46-1.41,2.47-2.28,3.55-8.51,8.8-17.57,17.07-25.68,26.26l-2.12.24c.01-48.91-.14-97.82.01-146.74-.09-1.77.28-4.8-2.43-4.33-202-.05-404.01,0-606.01-.03-10.36-.17-20.72.25-31.07-.14,6.84-7.99,13.89-15.81,20.96-23.62Z"/>
    <path class="cls-1" d="M379.01,128.66c4.37-9.04,13.88-15.27,23.94-15.59,7.75-.06,15.95-.96,23.18,2.53,3.57,1.59,8.47,3.55,8.27,8.26-.06,7.26.99,14.48.85,21.75-6.35-1.83-12.47-5.28-19.29-4.6-4.27-.39-9.34,2.94-8.72,7.64-.26,3.18,1.48,6,3.34,8.42,7.45,9.18,18.31,15.24,24.33,25.64,6.39,11.08,6.32,24.74,3,36.79-2.64,10.13-11.03,18.6-21.28,21.01-11.83,2.94-24.68,2.09-35.9-2.74-1.36-.73-3.28-1.48-3.22-3.32-.84-8.73-.85-17.52-1.79-26.25,3.39.11,6.21,2.21,9.31,3.33,4.41,1.84,9.29,1.87,14,1.71,4.21.12,8.36-3.4,8.58-7.67.31-3.56.09-7.45-2.3-10.31-4.15-5.16-9.71-8.9-14.27-13.66-7.25-6.88-14.08-15.26-15.29-25.53-.9-9.18-1.25-19.03,3.26-27.41Z"/>
    <path class="cls-1" d="M504.94,123.59c7.7-7.96,19.23-11.05,30.05-10.64,8.5-.33,17.28.8,24.84,4.9,3.35,1.61,2.59,5.73,2.89,8.76.59,6.41,1.08,12.84,1.08,19.28-7.17-1.99-14.22-5.14-21.8-4.8-5.03,0-10.82,1.28-13.71,5.79-3.21,4.93-3.7,11.06-3.81,16.78.01,12.66-.06,25.33.11,37.99.35,3.77.33,8.25,3.27,11.05,3.2,2.62,7.87.97,10.31-1.87,1.69-2.73,1.35-6.08,1.47-9.14-.06-3.79.23-7.61-.29-11.38-2.16-1.02-4.55-1.37-6.76-2.2-1.59-7.59-.84-15.49-.22-23.16,6.89.21,13.74-.79,20.64-.6,4.43.11,9.11-.52,13.33,1.25.26,17.34-.01,34.7.06,52.05-.18,7.22.45,14.5-.65,21.68-7.85,1.01-15.82.89-23.7.58-.34-.31-1.02-.93-1.36-1.23-.27-4.1-.03-8.22-.24-12.32-2.97,5.58-6,12.2-12.47,14.35-7.15,2.01-15.59,2.41-21.95-2.02-5.97-3.94-9.07-10.86-10.69-17.58-2.49-10.3-1.9-20.96-2.04-31.46.05-12.13-.22-24.27.23-36.4.56-10.68,3.53-21.97,11.41-29.66Z"/>
    <path class="cls-1" d="M579.44,114.82c6.81-1.02,13.71-.45,20.57-.6,6.65.16,13.31-.26,19.96.11,1.27,1.08,1.56,2.78,1.9,4.32,2.45,16.45,5.35,32.83,7.73,49.3,1.94,10.77,4.06,21.53,4.79,32.47l.34-.02c-.39-15.98.31-31.98-.4-47.96-1.2-12.21-1.12-24.54-.67-36.79.35-.3,1.05-.9,1.4-1.19,9.14-.43,18.33-.39,27.48-.04-.05,35.74-.02,71.48-.06,107.23-.05,5.94.21,11.89-.32,17.82-7.01,1.04-14.11.5-21.16.6-6.68-.14-13.37.28-20.03-.34-2.69-15.96-5.41-31.92-7.7-47.94-2.63-12.75-4.7-25.61-6.81-38.44-.37,8.76.27,17.53.16,26.3,1.65,19.88,1.02,39.88.98,59.82-9.31,1.16-18.73.44-28.08.63-.37-41.76-.1-83.52-.08-125.28Z"/>
    <path class="cls-1" d="M42.9,115.22c8.71-.27,17.45-.17,26.17-.1,3.38-.12,4.67,3.51,4.92,6.28,1.55,12.03,3.58,24,5.35,36,.55,4.23,1.57,8.4,3.04,12.41.51-2.38,1-4.77,1.21-7.2,1.21-12.38,3.65-24.59,5.37-36.9.54-3.1.79-6.27,1.81-9.26,1.25-1.59,3.38-1.22,5.17-1.34,8.64.05,17.28-.11,25.92.02-.3,2.84-.82,5.66-1.62,8.4-7.14,24.74-13.86,49.6-20.8,74.4-4.03,13.46-.7,27.65-2.72,41.35-10.06,1.4-20.28.65-30.4.59-.18-1.74-.43-3.47-.47-5.21.7-13.07,1.21-26.54-2.66-39.21-6.69-23.63-13.14-47.33-19.91-70.94-.55-2.94-2.1-6.59-.38-9.29Z"/>
    <path class="cls-1" d="M131.41,123.02c.74-2.61.27-7.15,3.53-7.84,15.05-.13,30.12-.22,45.16.03,1.76,3.18,2,6.92,2.42,10.47,2.72,20.67,5.26,41.38,8.24,62.03,1.45,10.89,2.64,21.83,4.36,32.69.99,6.21,2.04,12.52,1.43,18.83-3.42,1.05-7.04.71-10.56.76-6.5-.1-13.01.25-19.5-.07-.85-8.01-1.43-16.04-2.1-24.06-.11-1.36-.57-3.04-2.15-3.23-3.96-.76-8.04-.26-12.05-.35-2.52,8.76-1.78,18.01-3.6,26.89-9.98,1.48-20.11.66-30.15.87-.14-4.19.46-8.34,1.2-12.45,2.67-19.21,4.86-38.49,7.62-57.69,2.14-15.62,3.66-31.31,6.15-46.88ZM155.72,139.27c-1.22,16.33-3.53,32.62-3.5,49.03,2.73-.05,5.48.11,8.19-.33,1.75-2.01.9-4.89.9-7.3-1.7-13.84-1.54-27.86-3.95-41.62-.41.06-1.23.16-1.64.22Z"/>
    <path class="cls-1" d="M205.66,119.62c.07-1.59-.01-4.66,2.3-4.48,13.35-.07,26.71-.09,40.07,0,8.8.1,17.95,2.78,24,9.5,7.27,7.31,8.63,18.21,8.33,28.04-.76,6.16-1.31,12.92-5.43,17.9-3.69,4.61-9.56,6.43-14.91,8.36,6.08,2.1,11.77,6,14.87,11.76,3.31,7.18,3.48,15.22,4.35,22.94.65,8.57,1.58,17.13,1.49,25.74-10.19,1.12-20.49.54-30.72.5-.91-11.39-.9-22.85-1.87-34.23-.58-5.19-6.15-7.26-10.73-6.85-1.58,13.4-.27,26.95-.86,40.42-9.45,1.38-19.05.63-28.56.81-2.35.12-2.55-2.63-2.41-4.35-.04-38.68-.08-77.37.08-116.06ZM237,140.99c-1.12,10.69-.6,21.51-.4,32.24,3.82,0,9.14.25,11-3.88,1.98-7.47,2.25-15.47.48-23.01-1.73-4.4-6.87-5.42-11.08-5.35Z"/>
    <path class="cls-1" d="M291.9,115.25c12.69-.3,25.4-.07,38.09-.17,8.62.03,17.96,1.07,24.88,6.73,8.86,6.67,12.41,18.12,12.47,28.84.05,18,.03,36.01-.08,54.01-.5,8.95-2.62,18.51-9.07,25.15-6.75,7.62-17.55,9.25-27.17,10.04-13.23.24-26.47.39-39.69.07-.2-38.76-.03-77.52-.09-116.28.06-2.8-.22-5.68.66-8.39ZM322.4,146.6c.02,21.99-.15,43.99.05,65.99,3.58.5,7.62.4,10.58-1.95,2.98-2.36,2.98-6.52,3.25-9.97.13-13.68-.03-27.35.08-41.02-.05-4.46.32-9.06-1.17-13.35-1.99-3.89-7.04-5.06-11.06-4.9-2.36.63-1.46,3.39-1.73,5.2Z"/>
    <path class="cls-1" d="M449.6,121.63c.16-2.17-.4-4.74,1.35-6.42,9.03-.23,18.08-.13,27.12-.15,1.21.07,3.7.06,3.51,1.87.25,19.56.06,39.15.15,58.72-.18,21.24.34,42.5-.45,63.72-9.39,1.19-18.88.48-28.31.68-2.05.42-3.91-1.27-3.41-3.36.04-38.35-.06-76.71.04-115.06Z"/>
    <path class="cls-1" d="M478.32,253.69c5.91-1.11,12.18-.4,17.7,2,5.89,3.15,10.62,8.63,12.48,15.1,2.6,8.03,1.99,16.55,2.08,24.86-.08,18.33.15,36.67-.18,55.01-.64,8.06-2,16.68-7.12,23.22-5.1,6.16-13.66,7.86-21.28,7.52-7.29.28-14.89-2.41-19.5-8.25-6.09-6.98-6.12-16.78-6.81-25.5-.04-19.67-.02-39.33-.03-58.99.3-9.33,1.36-19.43,7.32-27.02,3.67-4.78,9.55-7.07,15.34-7.95ZM478.61,263.59c-7.29,2.59-10.8,10.68-10.35,18.01-.04,22.68,0,45.36-.02,68.05.03,4.44-.16,9.07,1.67,13.25,2.57,7.63,12.83,11.62,19.75,7.37,6.55-3.46,8.8-11.46,8.85-18.37.28-23.1.11-46.2.12-69.3.17-5.31-1.52-10.68-4.68-14.94-3.89-3.96-10-5.49-15.34-4.07Z"/>
    <path class="cls-1" d="M640.34,253.78c6.39-1.39,13.25-.62,19.12,2.31,7.56,3.31,11.53,11.56,12.88,19.3.67,10.06.18,20.17.33,30.26-.07,16.92.15,33.84-.16,50.76-.38,10.78-7.29,22.01-18.34,24.39-9.18,1.24-19.85,1.52-27.08-5.3-6.78-6.94-8.12-17.18-8.6-26.44-.41-18.47-.15-36.94-.17-55.41-.05-10.66.56-22.04,6.5-31.27,3.28-5.36,9.67-7.48,15.52-8.6ZM640.4,264.06c-3.63,1.65-6.54,4.82-7.74,8.64-1.96,5.08-2.55,10.54-2.34,15.95.07,20.35-.05,40.7.08,61.05-.03,6.12.94,12.75,4.93,17.62,5.57,6.32,16.53,6,21.69-.67,4.07-5.74,4.43-13.16,4.6-19.96.05-16.68-.04-33.36.03-50.04-.07-7.47.39-15.07-1.48-22.38-1.83-8.28-12.05-13.29-19.77-10.21Z"/>
    <path class="cls-1" d="M326.09,255.14c8.98.15,17.97-.16,26.95.04,7.51.05,14.18,5.06,17.96,11.28,4.19,8.04,3.53,17.4,3.66,26.19-.22,10.24.78,20.88-2.96,30.66-2.12,5.76-6.8,10.72-12.93,12.11-6.86,2.42-14.19,1.24-21.24,2.37-.02,11.63-.18,23.26-.08,34.88-.04,2.18.03,4.47-.92,6.51-3.36.94-8.21,2.21-10.9-.5-.41-34.67-.01-69.36-.13-104.03.15-6.5-.47-13.06.59-19.51ZM337.37,265.01c-.44,2.86-.76,5.74-.73,8.64.02,16.34.02,32.69-.02,49.04.27,1.29-.38,3.81,1.47,4.06,5.03.57,10.23.44,15.16-.77,6.19-1.67,9.21-8.38,9.32-14.33.26-9,.09-18,.13-27,.15-5.78-.41-12.48-5.22-16.41-5.65-4.59-13.4-2.92-20.11-3.23Z"/>
    <path class="cls-1" d="M391.32,259.65c.2-1.6-.55-4.1,1.73-4.39,7.64-.31,15.31-.04,22.96-.16,5.56-.08,11.62.74,15.97,4.53,5.51,4.61,8.46,11.86,8.61,18.97.25,7.27.27,14.55-.06,21.82-.19,5.24-1.76,10.55-5.11,14.66-2.03,2.43-4.92,3.87-7.38,5.8-.97.43-.91,2.06.04,2.52,2.58,2.1,5.61,4.05,6.84,7.32,3.53,8.88,4.45,18.52,5.41,27.95.27,6.93,1.66,13.79,1.37,20.75-3.17.45-6.44,1.06-9.61.39-1.79-1.04-1.51-3.5-1.96-5.25-1.3-11.71-1.31-23.61-4.02-35.14-.96-4.73-3.83-9.43-8.55-11.11-4.37-1.44-9.08-1.34-13.61-1.05-.34.33-1.02,1-1.35,1.34-.41,10.34-.03,20.7-.2,31.05-.18,6.55.5,13.16-.66,19.65-3.41.76-6.91.87-10.38.61-.08-40.08-.08-80.17-.04-120.26ZM402.41,265.35c.08,17.4-.07,34.8-.01,52.2,5.84.97,11.92.56,17.64-.96,4.95-1.54,8.12-6.43,8.51-11.47,1.13-9.1,1.2-18.38.16-27.49-.34-5.78-4.73-11.53-10.68-12.23-5.19-.57-10.43-.43-15.62-.05Z"/>
    <path class="cls-1" d="M529.31,258.72c.06-1.37-.2-3.39,1.76-3.43,4.93-.28,9.93-.44,14.86.04,2.58,2.75,2.39,6.89,3.32,10.36,3.23,20.46,7.09,40.8,10.7,61.19,1.68,7.33,2.11,14.93,4.55,22.08,3.4-11.34,4.71-23.16,6.93-34.76,3.59-18.22,6.54-36.57,9.67-54.87.23-2.06,1.39-4.43,3.87-4.12,4.81.14,10.03-1.04,14.58.79.36,8.21-.13,16.44.17,24.65,1.36,19.97.58,40,.78,60-.2,12.92.43,25.87-.44,38.76-3.2.61-6.46.75-9.69.58-.98-11.1-.47-22.23-.83-33.35-.61-25.24.6-50.48-.05-75.72-.21,0-.62,0-.82,0-1.77,11.94-4.57,23.7-6.5,35.62-2.72,17.02-6.46,33.86-9.28,50.87-.59,2.96-.97,6.04-2.29,8.8-4.01,1.41-8.9,1.46-12.82-.28-2.95-13.51-4.99-27.23-7.5-40.84-2.37-11.55-4.32-23.18-6.16-34.83-1-6.07-2.64-12.02-4.64-17.83.14,34.73.17,69.47-.08,104.2.04,3.88-4.71,3.44-7.41,3.51-2.12.47-3.94-1.37-3.49-3.46.17-25.01-.56-50.06.79-75.04-.02-14.31-.1-28.62.02-42.93Z"/>
  </g>
</svg>